<?xml version="1.0" encoding="utf-8"?>
<!-- Generator: Adobe Illustrator 22.1.0, SVG Export Plug-In . SVG Version: 6.00 Build 0)  -->
<svg version="1.1" id="Calque_1" xmlns="http://www.w3.org/2000/svg" xmlns:xlink="http://www.w3.org/1999/xlink" x="0px" y="0px"
	 viewBox="0 0 252.7 110.6" style="enable-background:new 0 0 252.7 110.6;" xml:space="preserve">
<style type="text/css">
	.st0{fill:url(#SVGID_1_);}
	.st1{fill:#FFFFFF;}
	.st2{fill:#353335;}
	.st3{fill:#0073CF;}
</style>
<title>Fichier 1</title>
<linearGradient id="SVGID_1_" gradientUnits="userSpaceOnUse" x1="10339.1143" y1="1070.2703" x2="10644.3506" y2="1070.2703" gradientTransform="matrix(0 7.880000e-02 5.9865 -9.000000e-04 -6280.7256 -729.6375)">
	<stop  offset="0" style="stop-color:#59A4E0"/>
	<stop  offset="0.3808" style="stop-color:#328ED8"/>
	<stop  offset="0.7844" style="stop-color:#0E7BD2"/>
	<stop  offset="1" style="stop-color:#0073CF"/>
</linearGradient>
<polygon class="st0" points="5.5,108.2 5.5,84.1 247.4,84.1 247.4,108.2 "/>
<g>
	<path class="st1" d="M91.6,102.9v-9.5l-3.8,9.5h-1.3l-3.8-9.5v9.5h-2.9V89.4h4l3.3,8.2l3.3-8.2h4.1v13.5H91.6z"/>
	<path class="st1" d="M97.6,96.2c0-4.1,3-7,7.1-7c4.1,0,7.1,2.9,7.1,7c0,4.1-3,7-7.1,7C100.5,103.2,97.6,100.3,97.6,96.2z
		 M108.7,96.2c0-2.5-1.6-4.4-4.1-4.4c-2.5,0-4.1,1.9-4.1,4.4c0,2.5,1.6,4.4,4.1,4.4C107.1,100.6,108.7,98.7,108.7,96.2z"/>
	<path class="st1" d="M124,102.9l-6.4-8.8v8.8h-2.9V89.4h3l6.3,8.5v-8.5h2.9v13.5H124z"/>
	<path class="st1" d="M139.8,102.9l-0.8-2.3h-5.8l-0.9,2.3h-3.3l5.2-13.5h3.6l5.2,13.5H139.8z M136.1,92.3l-2.1,5.8h4.2L136.1,92.3z
		"/>
	<path class="st1" d="M144,96.2c0-4.2,3.1-7,7.2-7c3,0,4.7,1.6,5.7,3.3l-2.5,1.2c-0.6-1.1-1.8-2-3.2-2c-2.5,0-4.2,1.9-4.2,4.4
		c0,2.6,1.8,4.4,4.2,4.4c1.4,0,2.6-0.9,3.2-2l2.5,1.2c-1,1.7-2.7,3.3-5.7,3.3C147.2,103.2,144,100.3,144,96.2z"/>
	<path class="st1" d="M158.9,96.2c0-4.1,3-7,7.1-7c4.1,0,7.1,2.9,7.1,7c0,4.1-3,7-7.1,7C161.9,103.2,158.9,100.3,158.9,96.2z
		 M170.1,96.2c0-2.5-1.6-4.4-4.1-4.4c-2.5,0-4.1,1.9-4.1,4.4c0,2.5,1.6,4.4,4.1,4.4C168.5,100.6,170.1,98.7,170.1,96.2z"/>
</g>
<g>
	<path class="st2" d="M124.8,19.3h-4.6v14.5h-2.7V19.3h-4.6V17h12L124.8,19.3L124.8,19.3z"/>
	<path class="st2" d="M128.8,33.2c-1-0.4-1.9-1-2.7-1.8c-0.8-0.8-1.4-1.7-1.8-2.7s-0.7-2.1-0.7-3.3s0.2-2.3,0.7-3.3
		c0.4-1,1-1.9,1.8-2.7c0.8-0.8,1.7-1.4,2.7-1.8c1-0.4,2.1-0.7,3.3-0.7c1.1,0,2.3,0.2,3.3,0.7c1,0.4,1.9,1,2.7,1.8
		c0.8,0.8,1.4,1.7,1.8,2.7c0.4,1,0.7,2.2,0.7,3.3c0,1.1-0.2,2.3-0.7,3.3c-0.4,1-1,1.9-1.8,2.7c-0.8,0.8-1.7,1.4-2.7,1.8
		c-1,0.4-2.2,0.7-3.3,0.7C130.9,33.8,129.8,33.6,128.8,33.2z M127.9,21.3c-1.1,1.1-1.7,2.5-1.7,4.1s0.6,3,1.7,4.1
		c1.1,1.1,2.6,1.7,4.1,1.7c1.5,0,3-0.6,4.1-1.7c1.1-1.1,1.7-2.5,1.7-4.1s-0.6-3-1.7-4.1c-1.1-1.1-2.6-1.7-4.1-1.7
		C130.5,19.6,129,20.2,127.9,21.3z"/>
</g>
<g>
	<path class="st3" d="M73.4,3.5v27.2L46.6,1.5v10.6c2.7,3.7,4.4,8.2,4.4,13.2c0,4.9-1.6,9.5-4.4,13.2v8.5h6.8V21.3l27.2,29.6V3.5
		H73.4z"/>
	<polygon class="st3" points="109.1,40.7 109.1,46.9 83.1,46.9 83.1,3.5 109.1,3.5 109.1,9.7 89.9,9.7 89.9,21.2 105.7,21.2 
		105.7,27.4 89.8,27.4 89.8,40.7 	"/>
	<path class="st3" d="M26.9,3.4C15,3.4,5.3,13.2,5.3,25.2C5.3,37.3,15,47,26.9,47c11.9,0,21.6-9.8,21.6-21.8
		C48.6,13.2,38.9,3.4,26.9,3.4z M26.9,40c-8.2,0-14.8-6.6-14.8-14.8s6.6-14.8,14.8-14.8c8.2,0,14.8,6.6,14.8,14.8S35.1,40,26.9,40z"
		/>
	<g>
		<path class="st3" d="M212,3.5v27.2L185.2,1.5v10.6c2.7,3.7,4.4,8.2,4.4,13.2c0,4.9-1.6,9.5-4.4,13.2v8.5h6.8V21.4l27.2,29.6V3.5
			H212z"/>
		<polygon class="st3" points="247.7,40.7 247.7,46.9 221.7,46.9 221.7,3.5 247.7,3.5 247.7,9.7 228.6,9.7 228.6,21.2 244.3,21.2 
			244.3,27.4 228.4,27.4 228.4,40.8 		"/>
		<path class="st3" d="M165.6,3.4c-12,0-21.6,9.8-21.6,21.8c0,12,9.7,21.8,21.6,21.8c11.9,0,21.6-9.8,21.6-21.8
			C187.2,13.2,177.5,3.4,165.6,3.4z M165.6,40c-8.2,0-14.8-6.6-14.8-14.8c0-8.2,6.6-14.8,14.8-14.8c8.2,0,14.8,6.6,14.8,14.8
			C180.4,33.4,173.8,40,165.6,40z"/>
	</g>
</g>
<g>
	<g>
		<path class="st2" d="M15.4,75.7l-4.9-7.2H6.6v7.2H5.1V58.2h6.5c3,0,5.3,1.9,5.3,5.1c0,3.2-2.3,4.9-4.8,5l5.1,7.3H15.4z M15.4,63.3
			c0-2.2-1.6-3.7-3.9-3.7H6.6v7.5h4.9C13.8,67.1,15.4,65.6,15.4,63.3z"/>
		<path class="st2" d="M20.4,75.7V58.2h11.1v1.4h-9.6v6.5h9.4v1.4h-9.4v6.9h9.6v1.4H20.4z"/>
		<path class="st2" d="M39.4,75.7V59.6h-5.7v-1.4h12.9v1.4h-5.7v16.1H39.4z"/>
		<path class="st2" d="M60.3,75.7l-1.7-4.3h-9.3l-1.7,4.3h-1.7L53,58.2h1.9L62,75.7H60.3z M53.9,59.8l-4.1,10.2h8.3L53.9,59.8z"/>
		<path class="st2" d="M64.3,75.7V58.2h1.5v17.5C65.8,75.7,64.3,75.7,64.3,75.7z"/>
		<path class="st2" d="M69.9,75.7V58.2h1.5v16.1h8.5v1.4H69.9z"/>
		<path class="st2" d="M89.4,75.7V58.2h11.1v1.4h-9.6v6.5h9.4v1.4h-9.4v6.9h9.6v1.4H89.4z"/>
		<path class="st2" d="M102.5,67.4v-1.3h6.3v1.3H102.5z"/>
		<path class="st2" d="M110.9,67c0-5.4,3.9-9,8.9-9c2.8,0,4.9,1.2,6.4,3.1l-1.3,0.8c-1.1-1.5-3-2.5-5.1-2.5c-4.1,0-7.3,3.1-7.3,7.7
			c0,4.5,3.2,7.7,7.3,7.7c2.1,0,4-1,5.1-2.5l1.3,0.8c-1.5,1.9-3.6,3.1-6.4,3.1C114.8,76,110.9,72.4,110.9,67z"/>
		<path class="st2" d="M128.2,67c0-5.1,3.4-9,8.5-9c5.1,0,8.5,3.9,8.5,9c0,5.1-3.4,9-8.5,9C131.6,76,128.2,72.1,128.2,67z M143.6,67
			c0-4.5-2.7-7.7-6.9-7.7c-4.2,0-6.9,3.2-6.9,7.7c0,4.4,2.7,7.7,6.9,7.7C140.9,74.7,143.6,71.4,143.6,67z"/>
		<path class="st2" d="M163.5,75.7V60.3l-6.4,15.4h-0.6l-6.4-15.4v15.4h-1.5V58.2h2.2l5.9,14.4l5.9-14.4h2.3v17.5
			C165,75.7,163.5,75.7,163.5,75.7z"/>
		<path class="st2" d="M183.9,75.7V60.3l-6.4,15.4H177l-6.4-15.4v15.4h-1.5V58.2h2.2l5.9,14.4l5.9-14.4h2.3v17.5
			C185.4,75.7,183.9,75.7,183.9,75.7z"/>
		<path class="st2" d="M189.5,75.7V58.2h11.1v1.4H191v6.5h9.4v1.4H191v6.9h9.6v1.4H189.5z"/>
		<path class="st2" d="M214.3,75.7l-4.9-7.2h-3.9v7.2H204V58.2h6.5c3,0,5.3,1.9,5.3,5.1c0,3.2-2.3,4.9-4.8,5l5.1,7.3H214.3z
			 M214.3,63.3c0-2.2-1.6-3.7-3.9-3.7h-4.9v7.5h4.9C212.7,67.1,214.3,65.6,214.3,63.3z"/>
		<path class="st2" d="M218.7,67c0-5.4,3.9-9,8.9-9c2.8,0,4.9,1.2,6.4,3.1l-1.3,0.8c-1.1-1.5-3-2.5-5.1-2.5c-4.1,0-7.3,3.1-7.3,7.7
			c0,4.5,3.2,7.7,7.3,7.7c2.1,0,4-1,5.1-2.5l1.3,0.8c-1.5,1.9-3.6,3.1-6.4,3.1C222.6,76,218.7,72.4,218.7,67z"/>
		<path class="st2" d="M236.7,75.7V58.2h11.1v1.4h-9.6v6.5h9.4v1.4h-9.4v6.9h9.6v1.4H236.7z"/>
	</g>
</g>
</svg>
