<?xml version="1.0" encoding="utf-8"?>
<!-- Generator: Adobe Illustrator 21.1.0, SVG Export Plug-In . SVG Version: 6.00 Build 0)  -->
<svg version="1.1" id="Layer_2" xmlns="http://www.w3.org/2000/svg" xmlns:xlink="http://www.w3.org/1999/xlink" x="0px" y="0px"
	 viewBox="0 0 192.6 39" style="enable-background:new 0 0 192.6 39;" xml:space="preserve">
<style type="text/css">
	.st0{fill:#FFFFFF;}
	.st1{fill:#1168AD;}
	.st2{fill:#353335;}
</style>
<title>Logo_small</title>
<g>
	<g id="jMnQeP_1_">
		
			<image style="overflow:visible;" width="270" height="42" id="jMnQeP_2_" xlink:href="795F650E6DA5C8BC.jpg"  transform="matrix(0.426 0 0 0.2716 1.9761 25.8324)">
		</image>
	</g>
	<g>
		<path class="st0" d="M37.4,34.7v-6.4h1.9l1.6,4l1.6-4h1.9v6.4H43v-4.6l-1.8,4.6h-0.6l-1.8-4.6v4.6H37.4z"/>
		<path class="st0" d="M46,32.9c-0.2-0.4-0.3-0.9-0.3-1.3c0-0.5,0.1-0.9,0.3-1.3c0.2-0.4,0.4-0.8,0.7-1c0.3-0.3,0.6-0.5,1.1-0.7
			c0.4-0.2,0.9-0.2,1.3-0.2c0.6,0,1.2,0.1,1.7,0.4c0.5,0.3,0.9,0.7,1.2,1.2c0.3,0.5,0.4,1.1,0.4,1.7c0,0.6-0.1,1.2-0.4,1.7
			c-0.3,0.5-0.7,0.9-1.2,1.2c-0.5,0.3-1.1,0.4-1.7,0.4c-0.5,0-0.9-0.1-1.3-0.2c-0.4-0.2-0.8-0.4-1.1-0.7
			C46.4,33.6,46.2,33.3,46,32.9z M47.2,31.6c0,0.6,0.2,1.1,0.5,1.5c0.4,0.4,0.8,0.6,1.4,0.6c0.6,0,1.1-0.2,1.4-0.6
			c0.4-0.4,0.5-0.9,0.5-1.5c0-0.6-0.2-1.1-0.5-1.5c-0.4-0.4-0.8-0.6-1.4-0.6c-0.6,0-1.1,0.2-1.4,0.6S47.2,30.9,47.2,31.6z"/>
		<path class="st0" d="M53.9,34.7v-6.4h1.4l3,4v-4h1.4v6.4h-1.3l-3.1-4.2v4.2H53.9z"/>
		<path class="st0" d="M60.7,34.7l2.5-6.4h1.7l2.5,6.4h-1.5l-0.4-1.1h-2.7l-0.4,1.1H60.7z M63,32.5h2l-1-2.8L63,32.5z"/>
		<path class="st0" d="M68.1,31.6c0-0.6,0.2-1.2,0.4-1.7c0.3-0.5,0.7-0.9,1.2-1.2c0.5-0.3,1.1-0.4,1.7-0.4c0.3,0,0.7,0,0.9,0.1
			c0.3,0.1,0.5,0.2,0.8,0.4c0.2,0.2,0.4,0.3,0.6,0.5c0.2,0.2,0.3,0.4,0.4,0.6L73,30.4c-0.1-0.3-0.3-0.5-0.6-0.7
			c-0.3-0.2-0.6-0.3-0.9-0.3c-0.6,0-1.1,0.2-1.4,0.6c-0.4,0.4-0.6,0.9-0.6,1.5c0,0.6,0.2,1.1,0.6,1.5c0.4,0.4,0.9,0.6,1.4,0.6
			c0.3,0,0.6-0.1,0.9-0.3c0.3-0.2,0.5-0.4,0.6-0.7l1.2,0.6c-0.1,0.2-0.3,0.4-0.4,0.6c-0.2,0.2-0.3,0.3-0.6,0.5
			c-0.2,0.2-0.5,0.3-0.8,0.4c-0.3,0.1-0.6,0.1-0.9,0.1c-0.5,0-0.9-0.1-1.3-0.2s-0.8-0.4-1.1-0.7c-0.3-0.3-0.5-0.6-0.7-1.1
			C68.2,32.5,68.1,32,68.1,31.6z"/>
		<path class="st0" d="M75.5,32.9c-0.2-0.4-0.3-0.9-0.3-1.3c0-0.5,0.1-0.9,0.3-1.3c0.2-0.4,0.4-0.8,0.7-1c0.3-0.3,0.6-0.5,1.1-0.7
			c0.4-0.2,0.9-0.2,1.3-0.2c0.6,0,1.2,0.1,1.7,0.4c0.5,0.3,0.9,0.7,1.2,1.2c0.3,0.5,0.4,1.1,0.4,1.7c0,0.6-0.1,1.2-0.4,1.7
			c-0.3,0.5-0.7,0.9-1.2,1.2c-0.5,0.3-1.1,0.4-1.7,0.4c-0.5,0-0.9-0.1-1.3-0.2c-0.4-0.2-0.8-0.4-1.1-0.7
			C75.9,33.6,75.6,33.3,75.5,32.9z M76.6,31.6c0,0.6,0.2,1.1,0.5,1.5c0.4,0.4,0.8,0.6,1.4,0.6c0.6,0,1.1-0.2,1.4-0.6
			c0.4-0.4,0.5-0.9,0.5-1.5c0-0.6-0.2-1.1-0.5-1.5c-0.4-0.4-0.8-0.6-1.4-0.6c-0.6,0-1.1,0.2-1.4,0.6C76.8,30.4,76.6,30.9,76.6,31.6z
			"/>
	</g>
	<g>
		<path class="st1" d="M34.3,2.2v12.9L21.6,1.3v5c1.3,1.7,2.1,3.9,2.1,6.2c0,2.3-0.8,4.5-2.1,6.2v4h3.2V10.7l12.9,14V2.2H34.3z"/>
		<polygon class="st1" points="51.3,19.9 51.3,22.8 38.9,22.8 38.9,2.3 51.3,2.3 51.3,5.2 42.2,5.2 42.2,10.6 49.7,10.6 49.7,13.6 
			42.1,13.6 42.1,19.9 		"/>
		<path class="st1" d="M12.3,2.2C6.7,2.2,2.1,6.8,2.1,12.6c0,5.7,4.6,10.3,10.3,10.3c5.7,0,10.3-4.6,10.3-10.3
			C22.6,6.8,18,2.2,12.3,2.2z M12.3,19.6c-3.9,0-7-3.1-7-7c0-3.9,3.1-7,7-7c3.9,0,7,3.1,7,7C19.3,16.4,16.2,19.6,12.3,19.6z"/>
		<g>
			<path class="st1" d="M100.1,2.2v12.9L87.3,1.3v5c1.3,1.7,2.1,3.9,2.1,6.2c0,2.3-0.8,4.5-2.1,6.2v4h3.2V10.7l12.9,14V2.2H100.1z"
				/>
			<polygon class="st1" points="117,19.9 117,22.9 104.6,22.9 104.6,2.3 117,2.3 117,5.2 107.9,5.2 107.9,10.6 115.4,10.6 
				115.4,13.6 107.8,13.6 107.8,19.9 			"/>
			<path class="st1" d="M78,2.2c-5.7,0-10.3,4.6-10.3,10.3c0,5.7,4.6,10.3,10.3,10.3c5.7,0,10.3-4.6,10.3-10.3
				C88.3,6.9,83.7,2.2,78,2.2z M78,19.6c-3.9,0-7-3.1-7-7c0-3.9,3.1-7,7-7c3.9,0,7,3.1,7,7C85.1,16.4,81.9,19.6,78,19.6z"/>
		</g>
	</g>
	<g>
		<path class="st2" d="M58.4,10.3h-2.2v6.9h-1.3v-6.9h-2.2V9.1h5.7V10.3z"/>
		<path class="st2" d="M60.2,16.8c-0.5-0.2-0.9-0.5-1.3-0.9c-0.4-0.4-0.7-0.8-0.9-1.3c-0.2-0.5-0.3-1-0.3-1.6c0-0.5,0.1-1.1,0.3-1.6
			c0.2-0.5,0.5-0.9,0.9-1.3c0.4-0.4,0.8-0.6,1.3-0.9c0.5-0.2,1-0.3,1.6-0.3c0.5,0,1.1,0.1,1.6,0.3c0.5,0.2,0.9,0.5,1.3,0.9
			c0.4,0.4,0.6,0.8,0.9,1.3c0.2,0.5,0.3,1,0.3,1.6c0,0.5-0.1,1.1-0.3,1.6c-0.2,0.5-0.5,0.9-0.9,1.3c-0.4,0.4-0.8,0.7-1.3,0.9
			c-0.5,0.2-1,0.3-1.6,0.3C61.2,17.1,60.7,17,60.2,16.8z M59.8,11.2c-0.5,0.5-0.8,1.2-0.8,1.9c0,0.7,0.3,1.4,0.8,1.9
			c0.5,0.5,1.2,0.8,1.9,0.8c0.7,0,1.4-0.3,1.9-0.8c0.5-0.5,0.8-1.2,0.8-1.9c0-0.7-0.3-1.4-0.8-1.9c-0.5-0.5-1.2-0.8-1.9-0.8
			C61,10.4,60.4,10.7,59.8,11.2z"/>
	</g>
</g>
</svg>
